Patient4_TMGait_0pt6_01_right_16_GRF.mot
version=1
nRows=65
nColumns=19
inDegrees=no
endheader
time	F1x	F1y	F1z	M1x	M1y	M1z	F2x	F2y	F2z	M2x	M2y	M2z	EC1x	EC1y	EC1z	EC2x	EC2y	EC2z
18.87	16.9616	739.336	46.744	-262.7698	-33.5143	650.2103	-5.1043	6.0164	-9.9504	4.6987	12.5776	17.2239	-0.0592	0.0182	-0.0073	-0.0462	0.0165	0.9585
18.8824	11.2547	733.5611	48.0027	-260.2438	-35.915	641.1932	-3.5419	4.8679	-6.927	3.5797	8.8009	12.2705	-0.0592	0.0182	-0.0073	-0.0462	0.0165	0.9585
18.8949	6.2931	728.2304	49.0241	-257.8159	-37.8501	632.4725	-2.2795	3.9388	-4.2828	2.6174	5.5085	8.1477	-0.0592	0.0182	-0.0073	-0.0462	0.0165	0.9585
18.9073	2.3107	724.189	49.7772	-255.7913	-39.2481	624.9695	-1.3591	3.2731	-2.2181	1.8818	2.9446	5.0641	-0.0592	0.0182	-0.0073	-0.0462	0.0165	0.9585
18.9197	-0.67084	722.0206	50.2832	-254.3759	-40.1312	619.2285	-0.74558	2.8547	-0.75924	1.3777	1.1387	2.9795	-0.0592	0.0182	-0.0073	-0.0462	0.0165	0.9585
18.9321	-2.7284	721.944	50.6635	-253.6345	-40.6279	615.403	-0.40265	2.6396	0.17056	1.0737	0.00054781	1.7441	-0.0592	0.0182	-0.0073	-0.0462	0.0165	0.9585
18.9446	-3.9459	723.8042	51.0138	-253.4958	-40.8349	613.2708	-0.24844	2.5571	0.68558	0.91844	-0.61784	1.128	-0.0592	0.0182	-0.0073	-0.0462	0.0165	0.9585
18.957	-4.397	727.1528	51.448	-253.7822	-40.859	612.3447	-0.24972	2.5472	0.90042	0.85811	-0.85328	0.9324	-0.0592	0.0182	-0.0073	-0.0462	0.0165	0.9585
18.9694	-4.1072	731.4174	52.0283	-254.279	-40.7529	612.0368	-0.34203	2.512	0.9185	0.82969	-0.83585	0.91984	-0.0592	0.0182	-0.0073	-0.0462	0.0165	0.9585
18.9819	-3.0753	736.0184	52.7875	-254.7795	-40.539	611.7761	-0.49881	2.3806	0.8224	0.7814	-0.66424	0.93996	-0.0592	0.0182	-0.0073	-0.0462	0.0165	0.9585
18.9943	-1.3019	740.4897	53.7009	-255.1272	-40.1973	611.1267	-0.67062	2.0314	0.67295	0.65401	-0.42291	0.78318	-0.0592	0.0182	-0.0073	-0.0462	0.0165	0.9585
19.0067	1.1887	744.5209	54.7183	-255.2287	-39.6942	609.8253	-0.84689	1.3813	0.51178	0.40109	-0.16708	0.3258	-0.0592	0.0182	-0.0073	-0.0462	0.0165	0.9585
19.0191	4.3638	747.9297	55.7834	-255.0464	-38.9976	607.7406	-0.97311	0.35206	0.36731	-0.016357	0.049419	-0.54544	-0.0592	0.0182	-0.0073	-0.0462	0.0165	0.9585
19.0316	8.1436	750.622	56.8518	-254.5826	-38.096	604.83	-1.0198	-1.0788	0.26223	-0.61286	0.1843	-1.8536	-0.0592	0.0182	-0.0073	-0.0462	0.0165	0.9585
19.044	12.4545	752.5518	57.8973	-253.8586	-36.9952	601.0948	-0.91409	-2.8577	0.20729	-1.3665	0.19734	-3.5456	-0.0592	0.0182	-0.0073	-0.0462	0.0165	0.9585
19.0564	17.1758	753.6739	58.8949	-252.8961	-35.7091	596.5569	-0.57562	-4.7951	0.2213	-2.1951	0.034736	-5.4299	-0.0592	0.0182	-0.0073	-0.0462	0.0165	0.9585
19.0689	22.1981	753.9726	59.8426	-251.7232	-34.2735	591.2515	0.09847	-6.5072	0.32041	-2.9301	-0.36083	-7.12	-0.0592	0.0182	-0.0073	-0.0462	0.0165	0.9585
19.0813	27.3759	753.5101	60.736	-250.3885	-32.7256	585.2794	1.2295	-7.3472	0.53551	-3.2884	-1.0666	-7.9726	-0.0592	0.0182	-0.0073	-0.0462	0.0165	0.9585
19.0937	32.5949	752.419	61.6002	-248.9571	-31.123	578.7966	2.9004	-6.3332	0.88155	-2.8454	-2.1331	-7.0006	-0.0592	0.0182	-0.0073	-0.0462	0.0165	0.9585
19.1061	37.726	750.8354	62.4489	-247.4886	-29.5162	571.9747	5.1598	-2.1233	1.3874	-1.0248	-3.5986	-2.8605	-0.0592	0.0182	-0.0073	-0.0462	0.0165	0.9585
19.1186	42.702	748.752	63.2791	-245.9912	-27.9438	564.8678	7.9036	6.9578	2.0457	2.8858	-5.4036	6.1452	-0.0592	0.0182	-0.0073	-0.0462	0.0165	0.9585
19.131	47.4824	745.8864	64.0123	-244.3797	-26.3789	557.3388	10.8482	22.7181	2.8225	9.6576	-7.3793	21.8398	-0.0592	0.0182	-0.0073	-0.0462	0.0165	0.9585
19.1434	52.0749	741.5861	64.4925	-242.4456	-24.7278	548.9704	13.3664	46.7815	3.6091	19.979	-9.1425	45.8924	-0.0592	0.0182	-0.0073	-0.0462	0.0165	0.9585
19.1559	56.4668	734.7914	64.4858	-239.8482	-22.8456	539.0669	14.457	80.0362	4.2194	34.2259	-10.0757	79.2269	-0.0592	0.0182	-0.0073	-0.0462	0.0165	0.9585
19.1683	60.6196	724.119	63.7154	-236.1364	-20.5775	526.7276	12.8598	121.9733	4.4618	52.1697	-9.4508	121.378	-0.0592	0.0182	-0.0073	-0.0462	0.0165	0.9585
19.1807	64.4039	707.9964	61.9175	-230.7916	-17.8114	510.9222	7.655	169.9772	3.954	72.6763	-6.5074	169.7325	-0.0592	0.0182	-0.0073	-0.0462	0.0165	0.9585
19.1931	67.5703	684.9761	58.898	-223.3263	-14.5279	490.7225	-0.62783	219.4102	2.2427	93.7495	-1.0444	219.5912	-0.0592	0.0182	-0.0073	-0.0462	0.0165	0.9585
19.2056	69.7797	654.0319	54.6071	-213.3816	-10.8286	465.4848	-10.2373	265.4197	-0.73671	113.3288	6.2138	265.8984	-0.0592	0.0182	-0.0073	-0.0462	0.0165	0.9585
19.218	70.6809	614.9041	49.1628	-200.8341	-6.9182	435.11	-19.6762	305.5301	-4.4675	130.383	14.067	305.9139	-0.0592	0.0182	-0.0073	-0.0462	0.0165	0.9585
19.2304	70.0147	568.207	42.8857	-185.8379	-3.0964	400.0639	-28.0061	340.2892	-8.349	145.1659	21.5041	340.0126	-0.0592	0.0182	-0.0073	-0.0462	0.0165	0.9585
19.2429	67.6546	515.3304	36.1687	-168.8028	0.3523	361.3313	-34.751	371.8537	-11.8003	158.6213	27.7462	370.2963	-0.0592	0.0182	-0.0073	-0.0462	0.0165	0.9585
19.2553	63.6301	458.1865	29.4234	-150.3213	3.1886	320.1996	-39.791	402.6377	-14.4818	171.7889	32.4156	399.1956	-0.0592	0.0182	-0.0073	-0.0462	0.0165	0.9585
19.2677	58.0692	399.0111	22.9762	-131.1057	5.2722	278.1702	-43.1763	434.5295	-16.2949	185.468	35.4623	428.5888	-0.0592	0.0182	-0.0073	-0.0462	0.0165	0.9585
19.2801	51.2384	340.1166	17.105	-111.908	6.5408	236.7509	-45.1503	468.7014	-17.4624	200.1216	37.2234	459.6718	-0.0592	0.0182	-0.0073	-0.0462	0.0165	0.9585
19.2926	43.5015	283.7234	12.0148	-93.4593	7.0167	197.3753	-46.0511	505.5837	-18.3992	215.8826	38.2653	492.9259	-0.0592	0.0182	-0.0073	-0.0462	0.0165	0.9585
19.305	35.3116	231.6919	7.8762	-76.3805	6.767	161.2137	-46.3308	544.8354	-19.6549	232.5453	39.3121	528.1394	-0.0592	0.0182	-0.0073	-0.0462	0.0165	0.9585
19.3174	27.1331	185.3143	4.7846	-61.1105	5.8992	129.0647	-46.3881	585.3999	-21.6912	249.615	40.9805	564.3772	-0.0592	0.0182	-0.0073	-0.0462	0.0165	0.9585
19.3299	19.3949	145.1911	2.7362	-47.8647	4.5608	101.2793	-46.6082	625.8108	-24.7695	266.4432	43.6768	600.3139	-0.0592	0.0182	-0.0073	-0.0462	0.0165	0.9585
19.3423	12.4492	111.2433	1.5831	-36.6387	2.9552	77.7555	-47.1816	664.5083	-28.8435	282.3794	47.4367	634.49	-0.0592	0.0182	-0.0073	-0.0462	0.0165	0.9585
19.3547	6.4899	82.9696	1.0837	-27.2838	1.2901	58.1476	-48.1069	700.1614	-33.5566	296.8927	51.922	665.6561	-0.0592	0.0182	-0.0073	-0.0462	0.0165	0.9585
19.3671	1.6739	59.7177	0.97428	-19.5986	-0.22848	41.9881	-49.2281	731.6586	-38.4037	309.5678	56.592	692.7387	-0.0592	0.0182	-0.0073	-0.0462	0.0165	0.9585
19.3796	-1.9174	40.9026	1.0116	-13.3955	-1.4222	28.9002	-50.3354	758.0438	-42.9218	320.0551	60.9246	714.825	-0.0592	0.0182	-0.0073	-0.0462	0.0165	0.9585
19.392	-4.1896	26.0452	1.0242	-8.5168	-2.1592	18.5448	-51.2228	778.4569	-46.8077	328.0398	64.5534	731.1112	-0.0592	0.0182	-0.0073	-0.0462	0.0165	0.9585
19.4044	-5.1694	14.7971	0.92422	-4.841	-2.3951	10.7108	-51.7256	792.2482	-49.8916	333.2867	67.2576	740.9964	-0.0592	0.0182	-0.0073	-0.0462	0.0165	0.9585
19.4169	-5.0691	6.8033	0.72542	-2.2454	-2.2166	5.1307	-51.7311	799.1495	-52.118	335.7076	68.9494	744.2507	-0.0592	0.0182	-0.0073	-0.0462	0.0165	0.9585
19.4293	-4.4131	1.6806	0.48519	-0.59307	-1.8281	1.5687	-51.1672	799.3544	-53.5146	335.3991	69.6363	741.0815	-0.0592	0.0182	-0.0073	-0.0462	0.0165	0.9585
19.4417	-3.5215	-1.1841	0.26485	0.32196	-1.3831	-0.40775	-50.0071	793.6361	-54.1654	332.6917	69.394	732.2319	-0.0592	0.0182	-0.0073	-0.0462	0.0165	0.9585
19.4541	-2.6399	-2.4059	0.07561	0.70671	-0.96248	-1.2006	-48.2532	783.3949	-54.1761	328.1678	68.3264	719.0043	-0.0592	0.0182	-0.0073	-0.0462	0.0165	0.9585
19.4666	-1.8773	-2.5663	-0.061865	0.75091	-0.61768	-1.2553	-45.9429	770.4241	-53.7108	322.5652	66.6019	703.052	-0.0592	0.0182	-0.0073	-0.0462	0.0165	0.9585
19.479	-1.294	-2.1201	-0.16056	0.60404	-0.35451	-0.8909	-43.1534	756.5628	-52.9396	316.6398	64.4092	686.0648	-0.0592	0.0182	-0.0073	-0.0462	0.0165	0.9585
19.4914	-0.8826	-1.3966	-0.21428	0.37309	-0.17825	-0.35003	-39.9879	743.4563	-52.0089	311.0677	61.9247	669.542	-0.0592	0.0182	-0.0073	-0.0462	0.0165	0.9585
19.5039	-0.63179	-0.61466	-0.23306	0.12489	-0.078311	0.20359	-36.553	732.4576	-51.0078	306.4011	59.2729	654.7234	-0.0592	0.0182	-0.0073	-0.0462	0.0165	0.9585
19.5163	-0.51345	0.094619	-0.217	-0.1035	-0.049604	0.68398	-32.9566	724.4961	-50.006	303.0164	56.5585	642.4635	-0.0592	0.0182	-0.0073	-0.0462	0.0165	0.9585
19.5287	-0.46456	0.67493	-0.18403	-0.29565	-0.063859	1.0546	-29.334	720.0532	-49.0603	301.0993	53.8831	633.2329	-0.0592	0.0182	-0.0073	-0.0462	0.0165	0.9585
19.5411	-0.48119	1.1137	-0.14546	-0.44485	-0.11014	1.3246	-25.8293	719.1758	-48.2257	300.6538	51.3551	627.124	-0.0592	0.0182	-0.0073	-0.0462	0.0165	0.9585
19.5536	-0.52903	1.4006	-0.11311	-0.54858	-0.16891	1.4737	-22.5926	721.5706	-47.5507	301.5432	49.0769	623.9327	-0.0592	0.0182	-0.0073	-0.0462	0.0165	0.9585
19.566	-0.62504	1.5489	-0.089363	-0.60684	-0.23505	1.5295	-19.695	726.6719	-47.0854	303.5197	47.1249	623.1938	-0.0592	0.0182	-0.0073	-0.0462	0.0165	0.9585
19.5784	-0.7533	1.5302	-0.081119	-0.60791	-0.29387	1.4447	-17.1191	733.6939	-46.8645	306.2501	45.5194	624.2212	-0.0592	0.0182	-0.0073	-0.0462	0.0165	0.9585
19.5909	-0.9427	1.32	-0.081495	-0.53806	-0.3592	1.2088	-14.7251	741.7099	-46.9051	309.3492	44.2143	626.175	-0.0592	0.0182	-0.0073	-0.0462	0.0165	0.9585
19.6033	-1.1553	0.86825	-0.09308	-0.37643	-0.42248	0.75455	-12.3294	749.7416	-47.1693	312.4122	43.0962	628.176	-0.0592	0.0182	-0.0073	-0.0462	0.0165	0.9585
19.6157	-1.3934	0.12446	-0.10612	-0.099717	-0.49382	0.037029	-9.7678	756.8028	-47.6049	315.0319	42.0467	629.3621	-0.0592	0.0182	-0.0073	-0.0462	0.0165	0.9585
19.6281	-1.6073	-0.96595	-0.12177	0.31324	-0.55809	-1.014	-6.9244	761.9898	-48.133	316.8312	40.9539	628.9692	-0.0592	0.0182	-0.0073	-0.0462	0.0165	0.9585
19.6406	-1.7454	-2.4339	-0.13236	0.87543	-0.60141	-2.4311	-3.7855	764.544	-48.7119	317.4877	39.7782	626.3962	-0.0592	0.0182	-0.0073	-0.0462	0.0165	0.9585
19.653	-1.7041	-4.2382	-0.14655	1.572	-0.5775	-4.1959	-0.39417	763.9334	-49.3339	316.7729	38.5309	621.2441	-0.0592	0.0182	-0.0073	-0.0462	0.0165	0.9585
19.6654	-1.3464	-6.2247	-0.15495	2.3434	-0.43927	-6.1657	3.1278	760.0409	-50.0274	314.6274	37.2762	613.4925	-0.0592	0.0182	-0.0073	-0.0462	0.0165	0.9585
